<?xml version="1.0" standalone="no"?>
<!DOCTYPE svg PUBLIC "-//W3C//DTD SVG 20010904//EN" "http://www.w3.org/TR/2001/REC-SVG-20010904/DTD/svg10.dtd">
<!-- Created using Krita: https://krita.org -->
<svg xmlns="http://www.w3.org/2000/svg" 
    xmlns:xlink="http://www.w3.org/1999/xlink"
    xmlns:krita="http://krita.org/namespaces/svg/krita"
    xmlns:sodipodi="http://sodipodi.sourceforge.net/DTD/sodipodi-0.dtd"
    width="384pt"
    height="384pt"
    viewBox="0 0 384 384">
<defs/>
<path id="shape0" transform="translate(125.75999547124, 59.5199978566173)" fill="none" stroke="#ffffff" stroke-width="3.6" stroke-linecap="square" stroke-linejoin="miter" stroke-miterlimit="2" d="M114.24 0L0 111.84" sodipodi:nodetypes="cc"/><path id="shape1" transform="translate(174.23999372542, 58.0799979084733)" fill="#ffffff" fill-rule="evenodd" stroke="#ffffff" stroke-width="3.6" stroke-linecap="square" stroke-linejoin="miter" stroke-miterlimit="2" d="M67.2 0L0 144.96" sodipodi:nodetypes="cc"/><path id="shape2" transform="translate(241.919991288186, 57.5999979257587)" fill="none" stroke="#ffffff" stroke-width="3.6" stroke-linecap="square" stroke-linejoin="miter" stroke-miterlimit="2" d="M0 0L36 186.24" sodipodi:nodetypes="cc"/><path id="shape3" transform="translate(241.439991305472, 58.0799979084733)" fill="none" stroke="#ffffff" stroke-width="3.6" stroke-linecap="square" stroke-linejoin="miter" stroke-miterlimit="2" d="M0 0L102.24 224.16" sodipodi:nodetypes="cc"/><path id="shape4" transform="translate(277.919989991786, 244.31999120176)" fill="none" stroke="#ffffff" stroke-width="3.6" stroke-linecap="square" stroke-linejoin="miter" stroke-miterlimit="2" d="M65.76 37.92L0 0" sodipodi:nodetypes="cc"/><path id="shape5" transform="translate(174.23999372542, 244.31999120176)" fill="none" stroke="#ffffff" stroke-width="3.6" stroke-linecap="square" stroke-linejoin="miter" stroke-miterlimit="2" d="M103.68 0L0 83.52" sodipodi:nodetypes="cc"/><path id="shape6" transform="translate(107.999996110798, 252.959990890623)" fill="none" stroke="#ffffff" stroke-width="3.6" stroke-linecap="square" stroke-linejoin="miter" stroke-miterlimit="2" d="M66.24 74.88L0 0" sodipodi:nodetypes="cc"/><path id="shape7" transform="translate(107.519996128083, 204.479992636443)" fill="none" stroke="#ffffff" stroke-width="3.6" stroke-linecap="square" stroke-linejoin="miter" stroke-miterlimit="2" d="M0 48.48L65.76 0" sodipodi:nodetypes="cc"/><path id="shape8" transform="translate(47.0399983060363, 204.479992636443)" fill="none" stroke="#ffffff" stroke-width="3.6" stroke-linecap="square" stroke-linejoin="miter" stroke-miterlimit="2" d="M126.24 0L0 1.44" sodipodi:nodetypes="cc"/><path id="shape9" transform="translate(47.0399983060363, 170.879993846417)" fill="none" stroke="#ffffff" stroke-width="3.6" stroke-linecap="square" stroke-linejoin="miter" stroke-miterlimit="2" d="M0 35.04L77.76 0" sodipodi:nodetypes="cc"/><path id="shape10" transform="translate(107.039996145368, 170.879993846417)" fill="none" stroke="#ffffff" stroke-width="3.6" stroke-linecap="square" stroke-linejoin="miter" stroke-miterlimit="2" d="M17.76 0L0 81.12" sodipodi:nodetypes="cc"/><path id="shape11" transform="translate(45.5999983578923, 206.879992550017)" fill="none" stroke="#ffffff" stroke-width="3.6" stroke-linecap="square" stroke-linejoin="miter" stroke-miterlimit="2" d="M61.44 45.12L0 0" sodipodi:nodetypes="cc"/><path id="shape12" transform="translate(126.239995453954, 169.919993880988)" fill="none" stroke="#ffffff" stroke-width="3.6" stroke-linecap="square" stroke-linejoin="miter" stroke-miterlimit="2" d="M0 0L47.04 35.04" sodipodi:nodetypes="cc"/><path id="shape13" transform="translate(173.279993759991, 204.479992636443)" fill="none" stroke="#ffffff" stroke-width="3.6" stroke-linecap="square" stroke-linejoin="miter" stroke-miterlimit="2" d="M0 0L0.96 121.92" sodipodi:nodetypes="cc"/><path id="shape14" transform="translate(173.279993759991, 203.519992671014)" fill="none" stroke="#ffffff" stroke-width="3.6" stroke-linecap="square" stroke-linejoin="miter" stroke-miterlimit="2" d="M0 0L104.16 40.32" sodipodi:nodetypes="cc"/><circle id="shape15" transform="translate(36.0000000000001, 193.08)" r="13.2" cx="13.2" cy="13.2" fill="#6e90ba" fill-rule="evenodd" stroke="#6e90ba" stroke-width="0.36" stroke-linecap="square" stroke-linejoin="bevel"/><circle id="shape0" transform="matrix(0.99999999513121 0 0 0.99999999513121 112.855999998082 156.176006611483)" r="13.2" cx="13.2" cy="13.2" fill="#6e90ba" fill-rule="evenodd" stroke="#6e90ba" stroke-width="0.36" stroke-linecap="square" stroke-linejoin="bevel"/><circle id="shape01" transform="matrix(0.99999999513121 0 0 0.99999999513121 160.192001234488 189.832008340522)" r="13.2" cx="13.2" cy="13.2" fill="#6e90ba" fill-rule="evenodd" stroke="#6e90ba" stroke-width="0.36" stroke-linecap="square" stroke-linejoin="bevel"/><circle id="shape02" transform="matrix(0.99999999513121 0 0 0.99999999513121 94.4880065415936 239.328009499145)" r="13.2" cx="13.2" cy="13.2" fill="#6e90ba" fill-rule="evenodd" stroke="#6e90ba" stroke-width="0.36" stroke-linecap="square" stroke-linejoin="bevel"/><circle id="shape16" transform="translate(263.279994944037, 229.079993310572)" r="13.2" cx="13.2" cy="13.2" fill="#e1600f" fill-rule="evenodd" stroke="#e1600f" stroke-width="0.36" stroke-linecap="square" stroke-linejoin="bevel"/><circle id="shape03" transform="matrix(0.999999965825782 0 0 0.999999965825782 160.135999229352 314.575991564148)" r="13.2" cx="13.2" cy="13.2" fill="#e1600f" fill-rule="evenodd" stroke="#e1600f" stroke-width="0.36" stroke-linecap="square" stroke-linejoin="bevel"/><circle id="shape04" transform="matrix(0.999999965825782 0 0 0.999999965825782 227.448002529415 47.0880069207386)" r="13.2" cx="13.2" cy="13.2" fill="#e1600f" fill-rule="evenodd" stroke="#e1600f" stroke-width="0.36" stroke-linecap="square" stroke-linejoin="bevel"/><circle id="shape05" transform="matrix(0.999999965825782 0 0 0.999999965825782 329.51999026762 269.399990328965)" r="13.2" cx="13.2" cy="13.2" fill="#e1600f" fill-rule="evenodd" stroke="#e1600f" stroke-width="0.36" stroke-linecap="square" stroke-linejoin="bevel"/>
</svg>
